<svg width="96" height="88" viewBox="0 0 96 88" fill="none" xmlns="http://www.w3.org/2000/svg">
<path d="M17 17.4262L46.0534 0L75.1067 17.4262L75.6764 52.5739L46.0534 70.0001L17 52.5739V17.4262Z" fill="#9381FF"/>
<path d="M23.8361 22.4473L43.7746 10.9283V28.9452H37.2234V24.2194L30.957 27.4684V42.5317L37.2234 45.7806V40.7595H43.7746V58.4811L23.8361 46.6667V22.4473Z" fill="white"/>
<path d="M69.41 23.038L47.7624 10.9283V32.7848L62.0042 39.8735V41.6456L54.8833 45.7806V40.7595L47.7624 36.9199V59.0718L69.41 45.7806V34.8524L54.8833 28.0591V23.038L69.41 30.7173V23.038Z" fill="#FFFBFB"/>
<path d="M0.688 77.6C0.688 76.6933 0.869333 75.904 1.232 75.232C1.59467 74.5493 2.096 74.0213 2.736 73.648C3.38667 73.2747 4.128 73.088 4.96 73.088C6.03733 73.088 6.92267 73.3493 7.616 73.872C8.32 74.3947 8.784 75.12 9.008 76.048H7.44C7.29067 75.5147 6.99733 75.0933 6.56 74.784C6.13333 74.4747 5.6 74.32 4.96 74.32C4.128 74.32 3.456 74.608 2.944 75.184C2.432 75.7493 2.176 76.5547 2.176 77.6C2.176 78.656 2.432 79.472 2.944 80.048C3.456 80.624 4.128 80.912 4.96 80.912C5.6 80.912 6.13333 80.7627 6.56 80.464C6.98667 80.1653 7.28 79.7387 7.44 79.184H9.008C8.77333 80.08 8.304 80.8 7.6 81.344C6.896 81.8773 6.016 82.144 4.96 82.144C4.128 82.144 3.38667 81.9573 2.736 81.584C2.096 81.2107 1.59467 80.6827 1.232 80C0.869333 79.3173 0.688 78.5173 0.688 77.6ZM14.7748 82.144C13.9534 82.144 13.2068 81.9573 12.5348 81.584C11.8734 81.2107 11.3508 80.6827 10.9668 80C10.5934 79.3067 10.4068 78.5067 10.4068 77.6C10.4068 76.704 10.5988 75.9147 10.9828 75.232C11.3774 74.5387 11.9108 74.0107 12.5828 73.648C13.2548 73.2747 14.0068 73.088 14.8388 73.088C15.6708 73.088 16.4228 73.2747 17.0948 73.648C17.7668 74.0107 18.2948 74.5333 18.6788 75.216C19.0734 75.8987 19.2708 76.6933 19.2708 77.6C19.2708 78.5067 19.0681 79.3067 18.6628 80C18.2681 80.6827 17.7294 81.2107 17.0468 81.584C16.3641 81.9573 15.6068 82.144 14.7748 82.144ZM14.7748 80.864C15.2974 80.864 15.7881 80.7413 16.2468 80.496C16.7054 80.2507 17.0734 79.8827 17.3508 79.392C17.6388 78.9013 17.7828 78.304 17.7828 77.6C17.7828 76.896 17.6441 76.2987 17.3668 75.808C17.0894 75.3173 16.7268 74.9547 16.2788 74.72C15.8308 74.4747 15.3454 74.352 14.8228 74.352C14.2894 74.352 13.7988 74.4747 13.3508 74.72C12.9134 74.9547 12.5614 75.3173 12.2948 75.808C12.0281 76.2987 11.8948 76.896 11.8948 77.6C11.8948 78.3147 12.0228 78.9173 12.2788 79.408C12.5454 79.8987 12.8974 80.2667 13.3348 80.512C13.7721 80.7467 14.2521 80.864 14.7748 80.864ZM20.6411 77.584C20.6411 76.688 20.8225 75.904 21.1851 75.232C21.5478 74.5493 22.0438 74.0213 22.6731 73.648C23.3131 73.2747 24.0278 73.088 24.8171 73.088C25.4998 73.088 26.1345 73.248 26.7211 73.568C27.3078 73.8773 27.7558 74.288 28.0651 74.8V70.16H29.5371V82H28.0651V80.352C27.7771 80.8747 27.3505 81.3067 26.7851 81.648C26.2198 81.9787 25.5585 82.144 24.8011 82.144C24.0225 82.144 23.3131 81.952 22.6731 81.568C22.0438 81.184 21.5478 80.6453 21.1851 79.952C20.8225 79.2587 20.6411 78.4693 20.6411 77.584ZM28.0651 77.6C28.0651 76.9387 27.9318 76.3627 27.6651 75.872C27.3985 75.3813 27.0358 75.008 26.5771 74.752C26.1291 74.4853 25.6331 74.352 25.0891 74.352C24.5451 74.352 24.0491 74.48 23.6011 74.736C23.1531 74.992 22.7958 75.3653 22.5291 75.856C22.2625 76.3467 22.1291 76.9227 22.1291 77.584C22.1291 78.256 22.2625 78.8427 22.5291 79.344C22.7958 79.8347 23.1531 80.2133 23.6011 80.48C24.0491 80.736 24.5451 80.864 25.0891 80.864C25.6331 80.864 26.1291 80.736 26.5771 80.48C27.0358 80.2133 27.3985 79.8347 27.6651 79.344C27.9318 78.8427 28.0651 78.2613 28.0651 77.6ZM32.7496 71.808C32.4723 71.808 32.2376 71.712 32.0456 71.52C31.8536 71.328 31.7576 71.0933 31.7576 70.816C31.7576 70.5387 31.8536 70.304 32.0456 70.112C32.2376 69.92 32.4723 69.824 32.7496 69.824C33.0163 69.824 33.2403 69.92 33.4216 70.112C33.6136 70.304 33.7096 70.5387 33.7096 70.816C33.7096 71.0933 33.6136 71.328 33.4216 71.52C33.2403 71.712 33.0163 71.808 32.7496 71.808ZM33.4536 73.232V82H31.9976V73.232H33.4536ZM40.2071 73.072C41.2738 73.072 42.1378 73.3973 42.7991 74.048C43.4605 74.688 43.7911 75.616 43.7911 76.832V82H42.3511V77.04C42.3511 76.1653 42.1325 75.4987 41.6951 75.04C41.2578 74.5707 40.6605 74.336 39.9031 74.336C39.1351 74.336 38.5218 74.576 38.0631 75.056C37.6151 75.536 37.3911 76.2347 37.3911 77.152V82H35.9351V73.232H37.3911V74.48C37.6791 74.032 38.0685 73.6853 38.5591 73.44C39.0605 73.1947 39.6098 73.072 40.2071 73.072ZM49.7855 73.088C50.5428 73.088 51.2042 73.2533 51.7695 73.584C52.3455 73.9147 52.7722 74.3307 53.0495 74.832V73.232H54.5215V82.192C54.5215 82.992 54.3508 83.7013 54.0095 84.32C53.6682 84.9493 53.1775 85.44 52.5375 85.792C51.9082 86.144 51.1722 86.32 50.3295 86.32C49.1775 86.32 48.2175 86.048 47.4495 85.504C46.6815 84.96 46.2282 84.2187 46.0895 83.28H47.5295C47.6895 83.8133 48.0202 84.24 48.5215 84.56C49.0228 84.8907 49.6255 85.056 50.3295 85.056C51.1295 85.056 51.7802 84.8053 52.2815 84.304C52.7935 83.8027 53.0495 83.0987 53.0495 82.192V80.352C52.7615 80.864 52.3348 81.2907 51.7695 81.632C51.2042 81.9733 50.5428 82.144 49.7855 82.144C49.0068 82.144 48.2975 81.952 47.6575 81.568C47.0282 81.184 46.5322 80.6453 46.1695 79.952C45.8068 79.2587 45.6255 78.4693 45.6255 77.584C45.6255 76.688 45.8068 75.904 46.1695 75.232C46.5322 74.5493 47.0282 74.0213 47.6575 73.648C48.2975 73.2747 49.0068 73.088 49.7855 73.088ZM53.0495 77.6C53.0495 76.9387 52.9162 76.3627 52.6495 75.872C52.3828 75.3813 52.0202 75.008 51.5615 74.752C51.1135 74.4853 50.6175 74.352 50.0735 74.352C49.5295 74.352 49.0335 74.48 48.5855 74.736C48.1375 74.992 47.7802 75.3653 47.5135 75.856C47.2468 76.3467 47.1135 76.9227 47.1135 77.584C47.1135 78.256 47.2468 78.8427 47.5135 79.344C47.7802 79.8347 48.1375 80.2133 48.5855 80.48C49.0335 80.736 49.5295 80.864 50.0735 80.864C50.6175 80.864 51.1135 80.736 51.5615 80.48C52.0202 80.2133 52.3828 79.8347 52.6495 79.344C52.9162 78.8427 53.0495 78.2613 53.0495 77.6ZM60.086 82.144C59.414 82.144 58.8113 82.032 58.278 81.808C57.7447 81.5733 57.3233 81.2533 57.014 80.848C56.7047 80.432 56.534 79.9573 56.502 79.424H58.006C58.0487 79.8613 58.2513 80.2187 58.614 80.496C58.9873 80.7733 59.4727 80.912 60.07 80.912C60.6247 80.912 61.062 80.7893 61.382 80.544C61.702 80.2987 61.862 79.9893 61.862 79.616C61.862 79.232 61.6913 78.9493 61.35 78.768C61.0087 78.576 60.4807 78.3893 59.766 78.208C59.1153 78.0373 58.582 77.8667 58.166 77.696C57.7607 77.5147 57.4087 77.2533 57.11 76.912C56.822 76.56 56.678 76.1013 56.678 75.536C56.678 75.088 56.8113 74.6773 57.078 74.304C57.3447 73.9307 57.7233 73.6373 58.214 73.424C58.7047 73.2 59.2647 73.088 59.894 73.088C60.8647 73.088 61.6487 73.3333 62.246 73.824C62.8433 74.3147 63.1633 74.9867 63.206 75.84H61.75C61.718 75.3813 61.5313 75.0133 61.19 74.736C60.8593 74.4587 60.4113 74.32 59.846 74.32C59.3233 74.32 58.9073 74.432 58.598 74.656C58.2887 74.88 58.134 75.1733 58.134 75.536C58.134 75.824 58.2247 76.064 58.406 76.256C58.598 76.4373 58.8327 76.5867 59.11 76.704C59.398 76.8107 59.7927 76.9333 60.294 77.072C60.9233 77.2427 61.4353 77.4133 61.83 77.584C62.2247 77.744 62.5607 77.9893 62.838 78.32C63.126 78.6507 63.2753 79.0827 63.286 79.616C63.286 80.096 63.1527 80.528 62.886 80.912C62.6193 81.296 62.2407 81.6 61.75 81.824C61.27 82.0373 60.7153 82.144 60.086 82.144ZM69.6934 73.072C70.3547 73.072 70.952 73.216 71.4854 73.504C72.0187 73.7813 72.4347 74.2027 72.7334 74.768C73.0427 75.3333 73.1974 76.0213 73.1974 76.832V82H71.7574V77.04C71.7574 76.1653 71.5387 75.4987 71.1014 75.04C70.664 74.5707 70.0667 74.336 69.3094 74.336C68.5414 74.336 67.928 74.576 67.4694 75.056C67.0214 75.536 66.7974 76.2347 66.7974 77.152V82H65.3414V70.16H66.7974V74.48C67.0854 74.032 67.48 73.6853 67.9814 73.44C68.4934 73.1947 69.064 73.072 69.6934 73.072ZM79.3998 82.144C78.5784 82.144 77.8318 81.9573 77.1598 81.584C76.4984 81.2107 75.9758 80.6827 75.5918 80C75.2184 79.3067 75.0318 78.5067 75.0318 77.6C75.0318 76.704 75.2238 75.9147 75.6078 75.232C76.0024 74.5387 76.5358 74.0107 77.2078 73.648C77.8798 73.2747 78.6318 73.088 79.4638 73.088C80.2958 73.088 81.0478 73.2747 81.7198 73.648C82.3918 74.0107 82.9198 74.5333 83.3038 75.216C83.6984 75.8987 83.8958 76.6933 83.8958 77.6C83.8958 78.5067 83.6931 79.3067 83.2878 80C82.8931 80.6827 82.3544 81.2107 81.6718 81.584C80.9891 81.9573 80.2318 82.144 79.3998 82.144ZM79.3998 80.864C79.9224 80.864 80.4131 80.7413 80.8718 80.496C81.3304 80.2507 81.6984 79.8827 81.9758 79.392C82.2638 78.9013 82.4078 78.304 82.4078 77.6C82.4078 76.896 82.2691 76.2987 81.9918 75.808C81.7144 75.3173 81.3518 74.9547 80.9038 74.72C80.4558 74.4747 79.9704 74.352 79.4478 74.352C78.9144 74.352 78.4238 74.4747 77.9758 74.72C77.5384 74.9547 77.1864 75.3173 76.9198 75.808C76.6531 76.2987 76.5198 76.896 76.5198 77.6C76.5198 78.3147 76.6478 78.9173 76.9038 79.408C77.1704 79.8987 77.5224 80.2667 77.9598 80.512C78.3971 80.7467 78.8771 80.864 79.3998 80.864ZM87.2661 74.848C87.5541 74.3467 87.9808 73.9307 88.5461 73.6C89.1221 73.2587 89.7888 73.088 90.5461 73.088C91.3248 73.088 92.0288 73.2747 92.6581 73.648C93.2981 74.0213 93.7995 74.5493 94.1621 75.232C94.5248 75.904 94.7061 76.688 94.7061 77.584C94.7061 78.4693 94.5248 79.2587 94.1621 79.952C93.7995 80.6453 93.2981 81.184 92.6581 81.568C92.0288 81.952 91.3248 82.144 90.5461 82.144C89.7995 82.144 89.1381 81.9787 88.5621 81.648C87.9968 81.3067 87.5648 80.8853 87.2661 80.384V86.16H85.8101V73.232H87.2661V74.848ZM93.2181 77.584C93.2181 76.9227 93.0848 76.3467 92.8181 75.856C92.5515 75.3653 92.1888 74.992 91.7301 74.736C91.2821 74.48 90.7861 74.352 90.2421 74.352C89.7088 74.352 89.2128 74.4853 88.7541 74.752C88.3061 75.008 87.9435 75.3867 87.6661 75.888C87.3995 76.3787 87.2661 76.9493 87.2661 77.6C87.2661 78.2613 87.3995 78.8427 87.6661 79.344C87.9435 79.8347 88.3061 80.2133 88.7541 80.48C89.2128 80.736 89.7088 80.864 90.2421 80.864C90.7861 80.864 91.2821 80.736 91.7301 80.48C92.1888 80.2133 92.5515 79.8347 92.8181 79.344C93.0848 78.8427 93.2181 78.256 93.2181 77.584Z" fill="#9381FF"/>
</svg>
